<?xml version="1.0" standalone="no"?>
<!DOCTYPE svg PUBLIC "-//W3C//DTD SVG 20010904//EN"
 "http://www.w3.org/TR/2001/REC-SVG-20010904/DTD/svg10.dtd">
<svg version="1.0" xmlns="http://www.w3.org/2000/svg"
 width="2424.000000pt" height="2424.000000pt" viewBox="0 0 2424.000000 2424.000000"
 preserveAspectRatio="xMidYMid meet">
<metadata>
Created by potrace 1.11, written by Peter Selinger 2001-2013
</metadata>
<g transform="translate(0.000000,2424.000000) scale(0.100000,-0.100000)"
fill="#000000" stroke="none">
<path d="M0 12120 l0 -6240 12120 0 12120 0 0 6240 0 6240 -12120 0 -12120 0
0 -6240z m23250 -50 l0 -5280 -11160 0 -11160 0 0 5280 0 5280 11160 0 11160
0 0 -5280z"/>
<path d="M2770 16328 c-15 -35 -1270 -3319 -1270 -3324 0 -2 163 -4 363 -4
l363 0 136 378 136 377 664 3 664 2 114 -302 c62 -167 126 -338 142 -380 l30
-78 365 0 c343 0 364 1 359 18 -4 9 -302 762 -664 1672 l-658 1655 -367 3
-367 2 -10 -22z m609 -1375 c123 -329 226 -604 228 -610 4 -10 -89 -13 -446
-13 -248 0 -451 3 -451 8 0 13 435 1212 440 1212 3 0 106 -269 229 -597z"/>
<path d="M5200 14675 l0 -1675 310 0 310 0 2 1113 3 1114 681 -1111 682 -1111
336 -3 336 -2 0 1675 0 1675 -310 0 -310 0 -2 -1128 -3 -1128 -690 1126 -690
1125 -327 3 -328 2 0 -1675z"/>
<path d="M8570 14676 l0 -1676 743 0 c410 0 783 5 835 10 539 57 887 324 1093
838 93 231 129 455 129 802 0 413 -53 694 -184 966 -180 374 -477 615 -851
688 -161 32 -301 38 -1027 43 l-738 5 0 -1676z m1405 1083 c265 -23 463 -145
569 -349 100 -194 131 -400 123 -820 -5 -273 -16 -370 -57 -520 -25 -91 -97
-241 -140 -292 -77 -93 -246 -175 -405 -197 -43 -6 -238 -11 -446 -11 l-369 0
0 1106 0 1106 308 -6 c169 -4 357 -12 417 -17z"/>
<path d="M11940 14675 l0 -1675 340 0 340 0 0 700 0 700 43 0 c114 -1 358 -21
402 -33 200 -55 295 -170 880 -1064 l197 -303 400 0 c317 0 398 3 392 13 -98
161 -510 817 -575 913 -162 239 -264 348 -453 479 l-100 69 103 22 c391 84
639 301 732 642 30 110 38 357 15 467 -37 180 -113 329 -229 452 -81 85 -131
122 -226 168 -215 104 -478 125 -1598 125 l-663 0 0 -1675z m1415 1096 c270
-8 295 -10 357 -32 100 -36 179 -102 219 -186 34 -67 34 -70 33 -198 -1 -123
-3 -133 -32 -195 -49 -106 -149 -183 -273 -210 -36 -8 -220 -14 -546 -17
l-493 -5 0 426 0 426 223 -1 c122 0 353 -4 512 -8z"/>
<path d="M15310 14675 l0 -1675 1270 0 1270 0 0 285 0 285 -930 0 -930 0 0
450 0 450 835 0 835 0 0 285 0 285 -835 0 -835 0 0 370 0 370 900 0 900 0 0
285 0 285 -1240 0 -1240 0 0 -1675z"/>
<path d="M18332 15358 c125 -546 298 -1300 385 -1675 l156 -683 377 0 376 0
330 1240 c181 682 331 1240 334 1240 3 0 154 -557 335 -1237 l330 -1238 367
-3 c343 -2 367 -1 372 15 13 43 786 3308 786 3320 0 11 -63 13 -337 11 l-337
-3 -252 -1160 c-139 -638 -253 -1162 -254 -1165 -1 -3 -135 519 -298 1160
l-298 1165 -400 3 -401 2 -15 -52 c-8 -29 -145 -544 -304 -1145 -159 -600
-291 -1089 -294 -1086 -3 2 -113 516 -246 1141 l-241 1137 -350 3 -349 2 228
-992z"/>
<path d="M16800 11161 c-235 -38 -398 -96 -580 -209 -386 -238 -632 -618 -722
-1116 -30 -166 -33 -554 -5 -721 127 -754 578 -1233 1287 -1365 168 -32 491
-39 660 -15 409 57 850 237 1093 447 l57 50 0 674 0 674 -725 0 -725 0 0 -285
0 -285 385 0 385 0 0 -217 0 -218 -88 -56 c-157 -102 -376 -188 -531 -210 -43
-7 -137 -9 -218 -6 -120 5 -156 10 -242 37 -328 101 -540 356 -627 755 -27
124 -28 142 -28 385 -1 243 1 260 27 374 88 379 299 615 636 711 138 39 365
46 501 16 252 -56 455 -233 529 -463 8 -23 19 -38 28 -38 20 0 646 122 652
126 2 2 -10 52 -28 111 -111 365 -364 631 -722 761 -62 23 -175 53 -249 67
-117 23 -168 27 -385 30 -208 4 -269 1 -365 -14z"/>
<path d="M5730 9456 l0 -1676 743 0 c410 0 783 5 835 10 539 57 887 324 1093
838 93 231 129 455 129 802 0 413 -53 694 -184 966 -180 374 -477 615 -851
688 -161 32 -301 38 -1027 43 l-738 5 0 -1676z m1405 1083 c265 -23 463 -145
569 -349 100 -194 131 -400 123 -820 -5 -273 -16 -370 -57 -520 -25 -91 -97
-241 -140 -292 -77 -93 -246 -175 -405 -197 -43 -6 -238 -11 -446 -11 l-369 0
0 1106 0 1106 308 -6 c169 -4 357 -12 417 -17z"/>
<path d="M9100 9455 l0 -1675 1270 0 1270 0 0 285 0 285 -930 0 -930 0 0 450
0 450 835 0 835 0 0 285 0 285 -835 0 -835 0 0 370 0 370 900 0 900 0 0 285 0
285 -1240 0 -1240 0 0 -1675z"/>
<path d="M12210 9455 l0 -1675 310 0 310 0 2 1113 3 1114 681 -1111 682 -1111
336 -3 336 -2 0 1675 0 1675 -310 0 -310 0 -2 -1128 -3 -1128 -690 1126 -690
1125 -327 3 -328 2 0 -1675z"/>
</g>
</svg>
